<?xml version="1.0" encoding="utf-8"?>
<!-- Generator: Adobe Illustrator 19.2.1, SVG Export Plug-In . SVG Version: 6.00 Build 0)  -->
<svg version="1.1" id="layer" xmlns="http://www.w3.org/2000/svg" xmlns:xlink="http://www.w3.org/1999/xlink" x="0px" y="0px"
	 viewBox="0 0 652 652" style="enable-background:new 0 0 652 652;" xml:space="preserve">
<style type="text/css">
	.st0{fill:#EC670F;}
</style>
<g>
	<path class="st0" d="M45.8,385.6H20.6V229.4h60.5c36,0,55.3,18.2,55.3,47.5c0,29.3-19.3,47.5-55.3,47.5H45.8V385.6L45.8,385.6z
		 M45.8,300.5h34.7c20.5,0,29.8-7.4,29.8-23.6s-9.2-23.7-29.8-23.7H45.8V300.5L45.8,300.5z"/>
	<path class="st0" d="M224.7,385.6v-12.9c-7.4,9.5-18.3,15.6-33.6,15.6c-29.9,0-53.4-23.5-53.4-56.2s23.5-56.2,53.4-56.2
		c15.3,0,26.1,6.2,33.6,15.7v-13H248v106.9H224.7L224.7,385.6z M161.6,332.2c0,18.7,12.2,34.3,32.3,34.3c19.2,0,32.3-14.7,32.3-34.3
		c0-19.5-13.1-34.3-32.3-34.3C173.8,297.9,161.6,313.5,161.6,332.2L161.6,332.2z"/>
	<path class="st0" d="M356.3,292.9l-15,16c-7.5-7.1-15.4-11.1-25.6-11.1c-18,0-31.6,14.1-31.6,34.3c0,20.2,13.6,34.3,31.6,34.3
		c10.3,0,19.4-4.8,26.2-11.2l14.4,16.1c-9.9,11.3-23.8,17.1-39.9,17.1c-33.9,0-56.2-24.2-56.2-56.2s22.3-56.2,56.2-56.2
		C332.5,275.9,346.9,281.7,356.3,292.9L356.3,292.9z"/>
	<polyline class="st0" points="389.1,340.5 389.1,385.6 365.7,385.6 365.7,225 389.1,224.4 389.1,318.8 	"/>
	<polygon class="st0" points="495.1,385.6 495.1,299.9 473.8,299.9 473.8,278.8 495.1,278.8 495.1,246.4 518.5,246.4 518.5,278.8 
		539.9,278.8 539.9,299.9 518.5,299.9 518.5,385.6 	"/>
	<polygon class="st0" points="393.5,329.1 402.2,319.3 437.5,278.8 466.8,278.8 422,329 467.3,385.6 437.7,385.6 402.1,340.5 	"/>
	<polygon class="st0" points="612.1,340.5 576.5,385.6 546.9,385.6 592.1,329 547.3,278.8 576.7,278.8 612,319.3 620.6,329.1 	"/>
	<polygon class="st0" points="620.6,419.8 20.6,419.8 20.6,404.3 620.6,404.3 	"/>
</g>
</svg>
